<svg xmlns="http://www.w3.org/2000/svg" viewBox="0 0 800 800" width="800" height="800" role="img" aria-label="Aurora Smart Speaker">
<defs>
<linearGradient id="bg" x1="0" y1="0" x2="0" y2="1">
<stop offset="0" stop-color="#d1fae5"/><stop offset="1" stop-color="#ecfdf5"/>
</linearGradient>
</defs>
<rect width="800" height="800" fill="url(#bg)"/>
<rect x="298" y="196" width="204" height="376" rx="52" fill="#ccfbf1"/><circle cx="344" cy="300" r="8" fill="#0f766e" opacity="0.7"/><circle cx="382" cy="300" r="8" fill="#0f766e" opacity="0.7"/><circle cx="420" cy="300" r="8" fill="#0f766e" opacity="0.7"/><circle cx="458" cy="300" r="8" fill="#0f766e" opacity="0.7"/><circle cx="344" cy="338" r="8" fill="#0f766e" opacity="0.7"/><circle cx="382" cy="338" r="8" fill="#0f766e" opacity="0.7"/><circle cx="420" cy="338" r="8" fill="#0f766e" opacity="0.7"/><circle cx="458" cy="338" r="8" fill="#0f766e" opacity="0.7"/><circle cx="344" cy="376" r="8" fill="#0f766e" opacity="0.7"/><circle cx="382" cy="376" r="8" fill="#0f766e" opacity="0.7"/><circle cx="420" cy="376" r="8" fill="#0f766e" opacity="0.7"/><circle cx="458" cy="376" r="8" fill="#0f766e" opacity="0.7"/><circle cx="344" cy="414" r="8" fill="#0f766e" opacity="0.7"/><circle cx="382" cy="414" r="8" fill="#0f766e" opacity="0.7"/><circle cx="420" cy="414" r="8" fill="#0f766e" opacity="0.7"/><circle cx="458" cy="414" r="8" fill="#0f766e" opacity="0.7"/><circle cx="344" cy="452" r="8" fill="#0f766e" opacity="0.7"/><circle cx="382" cy="452" r="8" fill="#0f766e" opacity="0.7"/><circle cx="420" cy="452" r="8" fill="#0f766e" opacity="0.7"/><circle cx="458" cy="452" r="8" fill="#0f766e" opacity="0.7"/><rect x="352" y="516" width="96" height="10" rx="5" fill="#0f766e"/><text x="400" y="726" font-family="Segoe UI, Helvetica, Arial, sans-serif" font-size="34" font-weight="600" fill="#0f172a" text-anchor="middle" opacity="0.85">Aurora Smart Speaker</text>
</svg>
